# xmcd
#
# Track frame offsets:
#	150
#	12957
#	26667
#	36398
#	49881
#	63666
#	74710
#	86271
#	98365
#	109571
#	119927
#	131929
#	144595
#	158082
#	168951
#
# Disc length: 2411
#
# Revision: 1
# Processed by: cddbd v1.5.1PL0 Copyright (c) Steve Scherf et al.
# Submitted via: WhereIsIt 3.23
# Normalized: r0:DSETVAR1
#
DISCID=d509690f
DTITLE=Various Artist - Blues Story - Vol. 03 - Les Labels De Légende - Chess Records
DYEAR=1900
DGENRE=
TTITLE0=Muddy Waters - I'm Your Hoochie Coochie Man
TTITLE1=Albert King - Searching For A Woman
TTITLE2=Willie Dixon - 29 Ways
TTITLE3=Koko Taylor - Wang Dang Doodle
TTITLE4=Memphis Slim - My Baby
TTITLE5=J.B. Lenoir - Mama Talk To Your Daughter
TTITLE6=Sonny Boy Williamson II - Don't Start Me To Talkin'
TTITLE7=Chuck Berry - You Never Can Tell
TTITLE8=Bo Diddley - Who Do You Love
TTITLE9=Buddy Guy - First Time I Met The Blues
TTITLE10=Little Walter - My Babe
TTITLE11=Jimmy Rodgers - That's All Right
TTITLE12=John Lee Hooker - One Bourbon, One Scotch, One Beer
TTITLE13=Otis Rush - I'm Satisfied
TTITLE14=Howlin' Wolf - How Many More Years
EXTD=
EXTT0=
EXTT1=
EXTT2=
EXTT3=
EXTT4=
EXTT5=
EXTT6=
EXTT7=
EXTT8=
EXTT9=
EXTT10=
EXTT11=
EXTT12=
EXTT13=
EXTT14=
PLAYORDER=
